<svg xmlns="http://www.w3.org/2000/svg" viewBox="0 0 187 24" width="187" height="24">
	<defs>
		<clipPath clipPathUnits="userSpaceOnUse" id="cp1">
			<path d="M-97 -62L1269 -62L1269 5648L-97 5648Z" />
		</clipPath>
	</defs>
	<style>
		tspan { white-space:pre }
		.shp0 { fill: #212121 } 
	</style>
	<g id="home-page" clip-path="url(#cp1)">
		<g id="home-page">
			<g id="navbar">
				<path id="logo" class="shp0" d="M38.5 20.7L38.5 3.87L32.93 3.87L32.93 20.7L38.5 20.7ZM62.04 20.7L62.04 3.87L57 3.87L57 12.51L50.35 3.87L45.7 3.87L45.7 20.7L50.76 20.7L50.76 12.11L57.39 20.7L62.04 20.7ZM83.31 8.27L83.31 3.87L68.16 3.87L68.16 8.27L72.94 8.27L72.94 20.7L78.51 20.7L78.51 8.27L83.31 8.27ZM103.66 8.1L103.66 3.87L89.42 3.87L89.42 20.7L103.87 20.7L103.87 16.47L94.99 16.47L94.99 14.39L102.87 14.39L102.87 10.16L94.99 10.16L94.99 8.1L103.66 8.1ZM120.46 20.7L126.75 20.7L123.43 15.23C125.16 14.17 126.1 12.35 126.1 9.9C126.1 6.06 123.48 3.87 118.92 3.87L110.78 3.87L110.78 20.7L116.35 20.7L116.35 16.33L118.44 16.33L120.46 20.7ZM116.35 12.11L116.35 8.1L118.92 8.1C120.12 8.1 120.82 8.82 120.82 10.07C120.82 11.36 120.12 12.11 118.92 12.11L116.35 12.11ZM138.55 20.7L138.55 3.87L132.98 3.87L132.98 20.7L138.55 20.7ZM154.15 3.71C148.8 3.71 144.91 7.28 144.91 12.27C144.91 17.29 148.8 20.94 154.15 20.94C159.5 20.94 163.39 17.27 163.39 12.27C163.39 7.31 159.5 3.71 154.15 3.71ZM154.22 8.34C156.14 8.34 157.68 9.99 157.68 12.3C157.68 14.6 156.14 16.31 154.22 16.31C152.3 16.31 150.62 14.6 150.62 12.3C150.62 9.99 152.28 8.34 154.22 8.34ZM179.42 20.7L185.71 20.7L182.4 15.23C184.13 14.17 185.06 12.35 185.06 9.9C185.06 6.06 182.45 3.87 177.89 3.87L169.75 3.87L169.75 20.7L175.32 20.7L175.32 16.33L177.41 16.33L179.42 20.7ZM175.32 12.11L175.32 8.1L177.89 8.1C179.09 8.1 179.78 8.82 179.78 10.07C179.78 11.36 179.09 12.11 177.89 12.11L175.32 12.11ZM1.25 11.03L1.25 1.84L10.44 1.84L10.44 11.03L1.25 11.03L1.25 11.03ZM13.06 1.84L22.25 1.84L22.25 11.03L13.06 11.03L13.06 1.84L13.06 1.84ZM13.06 22.84L13.06 13.66L22.25 13.66L22.25 22.84L13.06 22.84L13.06 22.84ZM1.25 22.84L1.25 13.66L10.44 13.66L10.44 22.84L1.25 22.84L1.25 22.84Z" />
			</g>
		</g>
	</g>
</svg>