<svg xmlns="http://www.w3.org/2000/svg" viewBox="0 0 25 25" width="25" height="25">
	<defs>
		<clipPath clipPathUnits="userSpaceOnUse" id="cp1">
			<path d="M-1175 -62L191 -62L191 5648L-1175 5648Z" />
		</clipPath>
	</defs>
	<style>
		tspan { white-space:pre }
		.shp0 { fill: #000000 } 
	</style>
	<g id="home-page" clip-path="url(#cp1)">
		<g id="home-page">
			<g id="navbar">
				<path id="search" class="shp0" d="M10.55 1.5C9.33 1.5 8.16 1.74 7.04 2.23C5.93 2.7 4.97 3.33 4.18 4.13C3.38 4.94 2.74 5.9 2.25 7.01C1.79 8.12 1.55 9.28 1.55 10.5C1.55 11.72 1.79 12.88 2.25 13.99C2.74 15.1 3.38 16.06 4.18 16.88C4.97 17.67 5.93 18.31 7.04 18.8C8.16 19.27 9.33 19.5 10.55 19.5C11.6 19.5 12.6 19.33 13.55 18.98C14.5 18.64 15.37 18.16 16.15 17.53L21.82 23.2C22.03 23.41 22.27 23.51 22.55 23.51C22.83 23.51 23.07 23.41 23.25 23.2C23.44 23.02 23.54 22.78 23.54 22.5C23.54 22.22 23.44 21.98 23.25 21.8L17.58 16.12C18.21 15.34 18.69 14.47 19.04 13.5C19.38 12.55 19.55 11.55 19.55 10.5C19.55 9.28 19.31 8.12 18.82 7.01C18.36 5.9 17.71 4.94 16.9 4.13C16.11 3.33 15.15 2.7 14.04 2.23C12.93 1.74 11.77 1.5 10.55 1.5L10.55 1.5ZM10.55 3.49C11.49 3.49 12.39 3.68 13.27 4.05C14.13 4.43 14.87 4.93 15.5 5.55C16.12 6.18 16.62 6.92 17 7.78C17.36 8.64 17.54 9.55 17.54 10.5C17.54 11.45 17.36 12.36 17 13.22C16.62 14.08 16.12 14.82 15.5 15.45C14.87 16.07 14.13 16.57 13.27 16.95C12.39 17.32 11.49 17.51 10.55 17.51C9.6 17.51 8.69 17.32 7.83 16.95C6.96 16.57 6.21 16.07 5.58 15.45C4.96 14.82 4.46 14.08 4.11 13.22C3.73 12.36 3.54 11.45 3.54 10.5C3.54 9.55 3.73 8.64 4.11 7.78C4.46 6.92 4.96 6.18 5.58 5.55C6.21 4.93 6.96 4.43 7.83 4.05C8.69 3.68 9.6 3.49 10.55 3.49L10.55 3.49Z" />
			</g>
		</g>
	</g>
</svg>